<?xml version="1.0" encoding="UTF-8" standalone="no"?>
<!DOCTYPE svg PUBLIC "-//W3C//DTD SVG 1.1//EN"
 "http://www.w3.org/Graphics/SVG/1.1/DTD/svg11.dtd">
<!-- Generated by graphviz version 2.38.0 (20140413.2041)
 -->
<!-- Title: tank::observing_ptr&lt; T &gt; Pages: 1 -->
<svg width="140pt" height="102pt"
 viewBox="0.00 0.00 140.43 102.00" xmlns="http://www.w3.org/2000/svg" xmlns:xlink="http://www.w3.org/1999/xlink">
<g id="graph0" class="graph" transform="scale(1 1) rotate(0) translate(4 98)">
<title>tank::observing_ptr&lt; T &gt;</title>
<polygon fill="white" stroke="none" points="-4,4 -4,-98 136.431,-98 136.431,4 -4,4"/>
<!-- Node1 -->
<g id="node1" class="node"><title>Node1</title>
<polygon fill="#bfbfbf" stroke="black" points="0,-75.5 0,-93.5 124.042,-93.5 124.042,-75.5 0,-75.5"/>
<text text-anchor="middle" x="62.021" y="-81.5" font-family="Helvetica,sans-Serif" font-size="10.00">tank::observing_ptr&lt; T &gt;</text>
</g>
<!-- Node2 -->
<g id="node2" class="node"><title>Node2</title>
<g id="a_node2"><a xlink:href="classtank_1_1observing__ptr.html" target="_top" xlink:title="tank::observing_ptr\l\&lt; tank::World \&gt;">
<polygon fill="white" stroke="black" points="11.4966,-0.5 11.4966,-28.5 112.545,-28.5 112.545,-0.5 11.4966,-0.5"/>
<text text-anchor="start" x="19.4966" y="-16.5" font-family="Helvetica,sans-Serif" font-size="10.00">tank::observing_ptr</text>
<text text-anchor="middle" x="62.021" y="-6.5" font-family="Helvetica,sans-Serif" font-size="10.00">&lt; tank::World &gt;</text>
</a>
</g>
</g>
<!-- Node1&#45;&gt;Node2 -->
<g id="edge1" class="edge"><title>Node1&#45;&gt;Node2</title>
<path fill="none" stroke="orange" stroke-dasharray="5,2" d="M62.021,-65.2088C62.021,-53.6862 62.021,-39.0784 62.021,-28.6867"/>
<polygon fill="orange" stroke="orange" points="58.5211,-65.4324 62.021,-75.4325 65.5211,-65.4325 58.5211,-65.4324"/>
<text text-anchor="middle" x="97.2261" y="-49" font-family="Helvetica,sans-Serif" font-size="10.00"> &lt; tank::World &gt;</text>
</g>
</g>
</svg>
