<?xml version="1.0" encoding="UTF-8" standalone="no"?>
<!DOCTYPE svg PUBLIC "-//W3C//DTD SVG 1.1//EN"
 "http://www.w3.org/Graphics/SVG/1.1/DTD/svg11.dtd">
<!-- Generated by graphviz version 2.38.0 (20140413.2041)
 -->
<!-- Title: tank::RectangleShape Pages: 1 -->
<svg width="122pt" height="192pt"
 viewBox="0.00 0.00 122.40 192.00" xmlns="http://www.w3.org/2000/svg" xmlns:xlink="http://www.w3.org/1999/xlink">
<g id="graph0" class="graph" transform="scale(1 1) rotate(0) translate(4 188)">
<title>tank::RectangleShape</title>
<polygon fill="white" stroke="none" points="-4,4 -4,-188 118.403,-188 118.403,4 -4,4"/>
<!-- Node1 -->
<g id="node1" class="node"><title>Node1</title>
<polygon fill="#bfbfbf" stroke="black" points="0,-0.5 0,-18.5 114.403,-18.5 114.403,-0.5 0,-0.5"/>
<text text-anchor="middle" x="57.2017" y="-6.5" font-family="Helvetica,sans-Serif" font-size="10.00">tank::RectangleShape</text>
</g>
<!-- Node2 -->
<g id="node2" class="node"><title>Node2</title>
<g id="a_node2"><a xlink:href="classtank_1_1_shape.html" target="_top" xlink:title="tank::Shape">
<polygon fill="white" stroke="black" points="22.5146,-55.5 22.5146,-73.5 91.8887,-73.5 91.8887,-55.5 22.5146,-55.5"/>
<text text-anchor="middle" x="57.2017" y="-61.5" font-family="Helvetica,sans-Serif" font-size="10.00">tank::Shape</text>
</a>
</g>
</g>
<!-- Node2&#45;&gt;Node1 -->
<g id="edge1" class="edge"><title>Node2&#45;&gt;Node1</title>
<path fill="none" stroke="midnightblue" d="M57.2017,-45.1746C57.2017,-36.0945 57.2017,-25.5949 57.2017,-18.5496"/>
<polygon fill="midnightblue" stroke="midnightblue" points="53.7018,-45.2187 57.2017,-55.2188 60.7018,-45.2188 53.7018,-45.2187"/>
</g>
<!-- Node3 -->
<g id="node3" class="node"><title>Node3</title>
<g id="a_node3"><a xlink:href="classtank_1_1_graphic.html" target="_top" xlink:title="tank::Graphic">
<polygon fill="white" stroke="black" points="19.4653,-110.5 19.4653,-128.5 94.938,-128.5 94.938,-110.5 19.4653,-110.5"/>
<text text-anchor="middle" x="57.2017" y="-116.5" font-family="Helvetica,sans-Serif" font-size="10.00">tank::Graphic</text>
</a>
</g>
</g>
<!-- Node3&#45;&gt;Node2 -->
<g id="edge2" class="edge"><title>Node3&#45;&gt;Node2</title>
<path fill="none" stroke="midnightblue" d="M57.2017,-100.175C57.2017,-91.0945 57.2017,-80.5949 57.2017,-73.5496"/>
<polygon fill="midnightblue" stroke="midnightblue" points="53.7018,-100.219 57.2017,-110.219 60.7018,-100.219 53.7018,-100.219"/>
</g>
<!-- Node4 -->
<g id="node4" class="node"><title>Node4</title>
<g id="a_node4"><a xlink:href="classtank_1_1_transformable.html" target="_top" xlink:title="tank::Transformable">
<polygon fill="white" stroke="black" points="4.92188,-165.5 4.92188,-183.5 109.481,-183.5 109.481,-165.5 4.92188,-165.5"/>
<text text-anchor="middle" x="57.2017" y="-171.5" font-family="Helvetica,sans-Serif" font-size="10.00">tank::Transformable</text>
</a>
</g>
</g>
<!-- Node4&#45;&gt;Node3 -->
<g id="edge3" class="edge"><title>Node4&#45;&gt;Node3</title>
<path fill="none" stroke="midnightblue" d="M57.2017,-155.175C57.2017,-146.094 57.2017,-135.595 57.2017,-128.55"/>
<polygon fill="midnightblue" stroke="midnightblue" points="53.7018,-155.219 57.2017,-165.219 60.7018,-155.219 53.7018,-155.219"/>
</g>
</g>
</svg>
