<?xml version="1.0" encoding="UTF-8" standalone="no"?>
<!DOCTYPE svg PUBLIC "-//W3C//DTD SVG 1.1//EN"
 "http://www.w3.org/Graphics/SVG/1.1/DTD/svg11.dtd">
<!-- Generated by graphviz version 2.38.0 (20140413.2041)
 -->
<!-- Title: tank::Grid&lt; T &gt; Pages: 1 -->
<svg width="239pt" height="148pt"
 viewBox="0.00 0.00 239.16 148.00" xmlns="http://www.w3.org/2000/svg" xmlns:xlink="http://www.w3.org/1999/xlink">
<g id="graph0" class="graph" transform="scale(1 1) rotate(0) translate(4 144)">
<title>tank::Grid&lt; T &gt;</title>
<polygon fill="white" stroke="none" points="-4,4 -4,-144 235.16,-144 235.16,4 -4,4"/>
<!-- Node1 -->
<g id="node1" class="node"><title>Node1</title>
<polygon fill="#bfbfbf" stroke="black" points="69.417,-121.5 69.417,-139.5 151.76,-139.5 151.76,-121.5 69.417,-121.5"/>
<text text-anchor="middle" x="110.588" y="-127.5" font-family="Helvetica,sans-Serif" font-size="10.00">tank::Grid&lt; T &gt;</text>
</g>
<!-- Node2 -->
<g id="node2" class="node"><title>Node2</title>
<g id="a_node2"><a xlink:href="classtank_1_1_grid.html" target="_top" xlink:title="tank::Grid\&lt; unsigned \&gt;">
<polygon fill="white" stroke="black" points="0,-56.5 0,-74.5 117.177,-74.5 117.177,-56.5 0,-56.5"/>
<text text-anchor="middle" x="58.5884" y="-62.5" font-family="Helvetica,sans-Serif" font-size="10.00">tank::Grid&lt; unsigned &gt;</text>
</a>
</g>
</g>
<!-- Node1&#45;&gt;Node2 -->
<g id="edge1" class="edge"><title>Node1&#45;&gt;Node2</title>
<path fill="none" stroke="orange" stroke-dasharray="5,2" d="M91.859,-114.995C87.6985,-111.322 83.488,-107.215 79.9829,-103 72.5629,-94.0766 66.1523,-82.2644 62.3316,-74.5284"/>
<polygon fill="orange" stroke="orange" points="89.6746,-117.731 99.5996,-121.438 94.1529,-112.35 89.6746,-117.731"/>
<text text-anchor="middle" x="110.891" y="-95" font-family="Helvetica,sans-Serif" font-size="10.00"> &lt; unsigned &gt;</text>
</g>
<!-- Node3 -->
<g id="node3" class="node"><title>Node3</title>
<g id="a_node3"><a xlink:href="classtank_1_1_grid.html" target="_top" xlink:title="tank::Grid\&lt; bool \&gt;">
<polygon fill="white" stroke="black" points="134.842,-56.5 134.842,-74.5 230.334,-74.5 230.334,-56.5 134.842,-56.5"/>
<text text-anchor="middle" x="182.588" y="-62.5" font-family="Helvetica,sans-Serif" font-size="10.00">tank::Grid&lt; bool &gt;</text>
</a>
</g>
</g>
<!-- Node1&#45;&gt;Node3 -->
<g id="edge2" class="edge"><title>Node1&#45;&gt;Node3</title>
<path fill="none" stroke="orange" stroke-dasharray="5,2" d="M127.686,-114.54C142.011,-102.005 161.911,-84.5925 173.401,-74.539"/>
<polygon fill="orange" stroke="orange" points="125.222,-112.045 120.001,-121.264 129.832,-117.313 125.222,-112.045"/>
<text text-anchor="middle" x="170.049" y="-95" font-family="Helvetica,sans-Serif" font-size="10.00"> &lt; bool &gt;</text>
</g>
<!-- Node4 -->
<g id="node4" class="node"><title>Node4</title>
<g id="a_node4"><a xlink:href="classtank_1_1_collision_grid.html" target="_top" xlink:title="tank::CollisionGrid">
<polygon fill="white" stroke="black" points="134.017,-0.5 134.017,-18.5 231.16,-18.5 231.16,-0.5 134.017,-0.5"/>
<text text-anchor="middle" x="182.588" y="-6.5" font-family="Helvetica,sans-Serif" font-size="10.00">tank::CollisionGrid</text>
</a>
</g>
</g>
<!-- Node3&#45;&gt;Node4 -->
<g id="edge3" class="edge"><title>Node3&#45;&gt;Node4</title>
<path fill="none" stroke="midnightblue" d="M182.588,-45.8288C182.588,-36.5774 182.588,-25.8798 182.588,-18.7014"/>
<polygon fill="midnightblue" stroke="midnightblue" points="179.088,-46.0625 182.588,-56.0625 186.088,-46.0625 179.088,-46.0625"/>
</g>
</g>
</svg>
