<?xml version="1.0" encoding="UTF-8" standalone="no"?>
<!DOCTYPE svg PUBLIC "-//W3C//DTD SVG 1.1//EN"
 "http://www.w3.org/Graphics/SVG/1.1/DTD/svg11.dtd">
<!-- Generated by graphviz version 2.38.0 (20140413.2041)
 -->
<!-- Title: tank::Transformable Pages: 1 -->
<svg width="582pt" height="192pt"
 viewBox="0.00 0.00 582.16 192.00" xmlns="http://www.w3.org/2000/svg" xmlns:xlink="http://www.w3.org/1999/xlink">
<g id="graph0" class="graph" transform="scale(1 1) rotate(0) translate(4 188)">
<title>tank::Transformable</title>
<polygon fill="white" stroke="none" points="-4,4 -4,-188 578.162,-188 578.162,4 -4,4"/>
<!-- Node1 -->
<g id="node1" class="node"><title>Node1</title>
<polygon fill="#bfbfbf" stroke="black" points="104.681,-165.5 104.681,-183.5 209.24,-183.5 209.24,-165.5 104.681,-165.5"/>
<text text-anchor="middle" x="156.96" y="-171.5" font-family="Helvetica,sans-Serif" font-size="10.00">tank::Transformable</text>
</g>
<!-- Node2 -->
<g id="node2" class="node"><title>Node2</title>
<g id="a_node2"><a xlink:href="classtank_1_1_camera.html" target="_top" xlink:title="tank::Camera">
<polygon fill="white" stroke="black" points="29.9482,-110.5 29.9482,-128.5 105.973,-128.5 105.973,-110.5 29.9482,-110.5"/>
<text text-anchor="middle" x="67.9604" y="-116.5" font-family="Helvetica,sans-Serif" font-size="10.00">tank::Camera</text>
</a>
</g>
</g>
<!-- Node1&#45;&gt;Node2 -->
<g id="edge1" class="edge"><title>Node1&#45;&gt;Node2</title>
<path fill="none" stroke="midnightblue" d="M134.841,-160.328C118.146,-150.386 95.7685,-137.06 81.6048,-128.625"/>
<polygon fill="midnightblue" stroke="midnightblue" points="133.061,-163.341 143.443,-165.45 136.642,-157.327 133.061,-163.341"/>
</g>
<!-- Node3 -->
<g id="node3" class="node"><title>Node3</title>
<g id="a_node3"><a xlink:href="classtank_1_1_entity.html" target="_top" xlink:title="Base class for all game entities. ">
<polygon fill="white" stroke="black" points="124.227,-110.5 124.227,-128.5 189.694,-128.5 189.694,-110.5 124.227,-110.5"/>
<text text-anchor="middle" x="156.96" y="-116.5" font-family="Helvetica,sans-Serif" font-size="10.00">tank::Entity</text>
</a>
</g>
</g>
<!-- Node1&#45;&gt;Node3 -->
<g id="edge2" class="edge"><title>Node1&#45;&gt;Node3</title>
<path fill="none" stroke="midnightblue" d="M156.96,-155.175C156.96,-146.094 156.96,-135.595 156.96,-128.55"/>
<polygon fill="midnightblue" stroke="midnightblue" points="153.461,-155.219 156.96,-165.219 160.461,-155.219 153.461,-155.219"/>
</g>
<!-- Node4 -->
<g id="node4" class="node"><title>Node4</title>
<g id="a_node4"><a xlink:href="classtank_1_1_graphic.html" target="_top" xlink:title="tank::Graphic">
<polygon fill="white" stroke="black" points="207.224,-110.5 207.224,-128.5 282.697,-128.5 282.697,-110.5 207.224,-110.5"/>
<text text-anchor="middle" x="244.96" y="-116.5" font-family="Helvetica,sans-Serif" font-size="10.00">tank::Graphic</text>
</a>
</g>
</g>
<!-- Node1&#45;&gt;Node4 -->
<g id="edge3" class="edge"><title>Node1&#45;&gt;Node4</title>
<path fill="none" stroke="midnightblue" d="M179.291,-160.051C195.748,-150.139 217.595,-136.982 231.469,-128.625"/>
<polygon fill="midnightblue" stroke="midnightblue" points="177.086,-157.293 170.326,-165.45 180.698,-163.289 177.086,-157.293"/>
</g>
<!-- Node5 -->
<g id="node5" class="node"><title>Node5</title>
<g id="a_node5"><a xlink:href="classtank_1_1_bitmap_text.html" target="_top" xlink:title="tank::BitmapText">
<polygon fill="white" stroke="black" points="0,-55.5 0,-73.5 89.9209,-73.5 89.9209,-55.5 0,-55.5"/>
<text text-anchor="middle" x="44.9604" y="-61.5" font-family="Helvetica,sans-Serif" font-size="10.00">tank::BitmapText</text>
</a>
</g>
</g>
<!-- Node4&#45;&gt;Node5 -->
<g id="edge4" class="edge"><title>Node4&#45;&gt;Node5</title>
<path fill="none" stroke="midnightblue" d="M204.807,-107.859C166.576,-97.728 109.883,-82.7046 75.2937,-73.5383"/>
<polygon fill="midnightblue" stroke="midnightblue" points="204.022,-111.272 214.585,-110.45 205.815,-104.506 204.022,-111.272"/>
</g>
<!-- Node6 -->
<g id="node6" class="node"><title>Node6</title>
<g id="a_node6"><a xlink:href="classtank_1_1_frame_list.html" target="_top" xlink:title="Represents an image with multiple frames and stores animations for that image. ">
<polygon fill="white" stroke="black" points="107.505,-55.5 107.505,-73.5 192.416,-73.5 192.416,-55.5 107.505,-55.5"/>
<text text-anchor="middle" x="149.96" y="-61.5" font-family="Helvetica,sans-Serif" font-size="10.00">tank::FrameList</text>
</a>
</g>
</g>
<!-- Node4&#45;&gt;Node6 -->
<g id="edge5" class="edge"><title>Node4&#45;&gt;Node6</title>
<path fill="none" stroke="midnightblue" d="M221.35,-105.328C203.529,-95.3856 179.643,-82.0598 164.525,-73.6253"/>
<polygon fill="midnightblue" stroke="midnightblue" points="220.094,-108.635 230.532,-110.45 223.504,-102.522 220.094,-108.635"/>
</g>
<!-- Node7 -->
<g id="node7" class="node"><title>Node7</title>
<g id="a_node7"><a xlink:href="classtank_1_1_image.html" target="_top" xlink:title="tank::Image">
<polygon fill="white" stroke="black" points="210.835,-55.5 210.835,-73.5 279.086,-73.5 279.086,-55.5 210.835,-55.5"/>
<text text-anchor="middle" x="244.96" y="-61.5" font-family="Helvetica,sans-Serif" font-size="10.00">tank::Image</text>
</a>
</g>
</g>
<!-- Node4&#45;&gt;Node7 -->
<g id="edge6" class="edge"><title>Node4&#45;&gt;Node7</title>
<path fill="none" stroke="midnightblue" d="M244.96,-100.175C244.96,-91.0945 244.96,-80.5949 244.96,-73.5496"/>
<polygon fill="midnightblue" stroke="midnightblue" points="241.461,-100.219 244.96,-110.219 248.461,-100.219 241.461,-100.219"/>
</g>
<!-- Node9 -->
<g id="node9" class="node"><title>Node9</title>
<g id="a_node9"><a xlink:href="classtank_1_1_shape.html" target="_top" xlink:title="tank::Shape">
<polygon fill="white" stroke="black" points="297.273,-55.5 297.273,-73.5 366.647,-73.5 366.647,-55.5 297.273,-55.5"/>
<text text-anchor="middle" x="331.96" y="-61.5" font-family="Helvetica,sans-Serif" font-size="10.00">tank::Shape</text>
</a>
</g>
</g>
<!-- Node4&#45;&gt;Node9 -->
<g id="edge8" class="edge"><title>Node4&#45;&gt;Node9</title>
<path fill="none" stroke="midnightblue" d="M267.038,-105.051C283.307,-95.1393 304.906,-81.9817 318.623,-73.6253"/>
<polygon fill="midnightblue" stroke="midnightblue" points="264.893,-102.259 258.174,-110.45 268.535,-108.237 264.893,-102.259"/>
</g>
<!-- Node13 -->
<g id="node13" class="node"><title>Node13</title>
<g id="a_node13"><a xlink:href="classtank_1_1_text.html" target="_top" xlink:title="tank::Text">
<polygon fill="white" stroke="black" points="384.562,-55.5 384.562,-73.5 443.359,-73.5 443.359,-55.5 384.562,-55.5"/>
<text text-anchor="middle" x="413.96" y="-61.5" font-family="Helvetica,sans-Serif" font-size="10.00">tank::Text</text>
</a>
</g>
</g>
<!-- Node4&#45;&gt;Node13 -->
<g id="edge12" class="edge"><title>Node4&#45;&gt;Node13</title>
<path fill="none" stroke="midnightblue" d="M280.553,-107.338C312.821,-97.2183 359.598,-82.5485 388.329,-73.5383"/>
<polygon fill="midnightblue" stroke="midnightblue" points="279.122,-104.118 270.628,-110.45 281.217,-110.798 279.122,-104.118"/>
</g>
<!-- Node8 -->
<g id="node8" class="node"><title>Node8</title>
<g id="a_node8"><a xlink:href="classtank_1_1_tilemap.html" target="_top" xlink:title="This is a tilemap. ">
<polygon fill="white" stroke="black" points="132.131,-0.5 132.131,-18.5 207.79,-18.5 207.79,-0.5 132.131,-0.5"/>
<text text-anchor="middle" x="169.96" y="-6.5" font-family="Helvetica,sans-Serif" font-size="10.00">tank::Tilemap</text>
</a>
</g>
</g>
<!-- Node7&#45;&gt;Node8 -->
<g id="edge7" class="edge"><title>Node7&#45;&gt;Node8</title>
<path fill="none" stroke="midnightblue" d="M225.137,-49.4916C211.209,-39.6491 193.063,-26.8255 181.459,-18.6253"/>
<polygon fill="midnightblue" stroke="midnightblue" points="223.383,-52.5376 233.57,-55.4504 227.423,-46.821 223.383,-52.5376"/>
</g>
<!-- Node10 -->
<g id="node10" class="node"><title>Node10</title>
<g id="a_node10"><a xlink:href="classtank_1_1_circle_shape.html" target="_top" xlink:title="tank::CircleShape">
<polygon fill="white" stroke="black" points="225.495,-0.5 225.495,-18.5 320.426,-18.5 320.426,-0.5 225.495,-0.5"/>
<text text-anchor="middle" x="272.96" y="-6.5" font-family="Helvetica,sans-Serif" font-size="10.00">tank::CircleShape</text>
</a>
</g>
</g>
<!-- Node9&#45;&gt;Node10 -->
<g id="edge9" class="edge"><title>Node9&#45;&gt;Node10</title>
<path fill="none" stroke="midnightblue" d="M315.419,-48.6408C304.598,-38.9201 290.873,-26.5913 282.006,-18.6253"/>
<polygon fill="midnightblue" stroke="midnightblue" points="313.221,-51.3715 323,-55.4504 317.899,-46.164 313.221,-51.3715"/>
</g>
<!-- Node11 -->
<g id="node11" class="node"><title>Node11</title>
<g id="a_node11"><a xlink:href="classtank_1_1_convex_shape.html" target="_top" xlink:title="tank::ConvexShape">
<polygon fill="white" stroke="black" points="338.32,-0.5 338.32,-18.5 441.601,-18.5 441.601,-0.5 338.32,-0.5"/>
<text text-anchor="middle" x="389.96" y="-6.5" font-family="Helvetica,sans-Serif" font-size="10.00">tank::ConvexShape</text>
</a>
</g>
</g>
<!-- Node9&#45;&gt;Node11 -->
<g id="edge10" class="edge"><title>Node9&#45;&gt;Node11</title>
<path fill="none" stroke="midnightblue" d="M348.489,-48.3965C359.118,-38.6833 372.509,-26.4466 381.151,-18.5496"/>
<polygon fill="midnightblue" stroke="midnightblue" points="346.044,-45.8893 341.023,-55.2188 350.766,-51.0568 346.044,-45.8893"/>
</g>
<!-- Node12 -->
<g id="node12" class="node"><title>Node12</title>
<g id="a_node12"><a xlink:href="classtank_1_1_rectangle_shape.html" target="_top" xlink:title="tank::RectangleShape">
<polygon fill="white" stroke="black" points="459.759,-0.5 459.759,-18.5 574.162,-18.5 574.162,-0.5 459.759,-0.5"/>
<text text-anchor="middle" x="516.96" y="-6.5" font-family="Helvetica,sans-Serif" font-size="10.00">tank::RectangleShape</text>
</a>
</g>
</g>
<!-- Node9&#45;&gt;Node12 -->
<g id="edge11" class="edge"><title>Node9&#45;&gt;Node12</title>
<path fill="none" stroke="midnightblue" d="M370.009,-52.5996C405.357,-42.4728 457.179,-27.6265 488.902,-18.5383"/>
<polygon fill="midnightblue" stroke="midnightblue" points="368.707,-49.3316 360.058,-55.4504 370.635,-56.0609 368.707,-49.3316"/>
</g>
</g>
</svg>
