<?xml version="1.0" encoding="UTF-8" standalone="no"?>
<!DOCTYPE svg PUBLIC "-//W3C//DTD SVG 1.1//EN"
 "http://www.w3.org/Graphics/SVG/1.1/DTD/svg11.dtd">
<!-- Generated by graphviz version 2.38.0 (20140413.2041)
 -->
<!-- Title: tank::Tilemap Pages: 1 -->
<svg width="113pt" height="192pt"
 viewBox="0.00 0.00 112.56 192.00" xmlns="http://www.w3.org/2000/svg" xmlns:xlink="http://www.w3.org/1999/xlink">
<g id="graph0" class="graph" transform="scale(1 1) rotate(0) translate(4 188)">
<title>tank::Tilemap</title>
<polygon fill="white" stroke="none" points="-4,4 -4,-188 108.56,-188 108.56,4 -4,4"/>
<!-- Node1 -->
<g id="node1" class="node"><title>Node1</title>
<polygon fill="#bfbfbf" stroke="black" points="14.4507,-0.5 14.4507,-18.5 90.1089,-18.5 90.1089,-0.5 14.4507,-0.5"/>
<text text-anchor="middle" x="52.2798" y="-6.5" font-family="Helvetica,sans-Serif" font-size="10.00">tank::Tilemap</text>
</g>
<!-- Node2 -->
<g id="node2" class="node"><title>Node2</title>
<g id="a_node2"><a xlink:href="classtank_1_1_image.html" target="_top" xlink:title="tank::Image">
<polygon fill="white" stroke="black" points="18.1543,-55.5 18.1543,-73.5 86.4053,-73.5 86.4053,-55.5 18.1543,-55.5"/>
<text text-anchor="middle" x="52.2798" y="-61.5" font-family="Helvetica,sans-Serif" font-size="10.00">tank::Image</text>
</a>
</g>
</g>
<!-- Node2&#45;&gt;Node1 -->
<g id="edge1" class="edge"><title>Node2&#45;&gt;Node1</title>
<path fill="none" stroke="midnightblue" d="M52.2798,-45.1746C52.2798,-36.0945 52.2798,-25.5949 52.2798,-18.5496"/>
<polygon fill="midnightblue" stroke="midnightblue" points="48.7799,-45.2187 52.2798,-55.2188 55.7799,-45.2188 48.7799,-45.2187"/>
</g>
<!-- Node3 -->
<g id="node3" class="node"><title>Node3</title>
<g id="a_node3"><a xlink:href="classtank_1_1_graphic.html" target="_top" xlink:title="tank::Graphic">
<polygon fill="white" stroke="black" points="14.5435,-110.5 14.5435,-128.5 90.0161,-128.5 90.0161,-110.5 14.5435,-110.5"/>
<text text-anchor="middle" x="52.2798" y="-116.5" font-family="Helvetica,sans-Serif" font-size="10.00">tank::Graphic</text>
</a>
</g>
</g>
<!-- Node3&#45;&gt;Node2 -->
<g id="edge2" class="edge"><title>Node3&#45;&gt;Node2</title>
<path fill="none" stroke="midnightblue" d="M52.2798,-100.175C52.2798,-91.0945 52.2798,-80.5949 52.2798,-73.5496"/>
<polygon fill="midnightblue" stroke="midnightblue" points="48.7799,-100.219 52.2798,-110.219 55.7799,-100.219 48.7799,-100.219"/>
</g>
<!-- Node4 -->
<g id="node4" class="node"><title>Node4</title>
<g id="a_node4"><a xlink:href="classtank_1_1_transformable.html" target="_top" xlink:title="tank::Transformable">
<polygon fill="white" stroke="black" points="0,-165.5 0,-183.5 104.56,-183.5 104.56,-165.5 0,-165.5"/>
<text text-anchor="middle" x="52.2798" y="-171.5" font-family="Helvetica,sans-Serif" font-size="10.00">tank::Transformable</text>
</a>
</g>
</g>
<!-- Node4&#45;&gt;Node3 -->
<g id="edge3" class="edge"><title>Node4&#45;&gt;Node3</title>
<path fill="none" stroke="midnightblue" d="M52.2798,-155.175C52.2798,-146.094 52.2798,-135.595 52.2798,-128.55"/>
<polygon fill="midnightblue" stroke="midnightblue" points="48.7799,-155.219 52.2798,-165.219 55.7799,-155.219 48.7799,-155.219"/>
</g>
</g>
</svg>
