<?xml version="1.0" encoding="UTF-8" standalone="no"?>
<!DOCTYPE svg PUBLIC "-//W3C//DTD SVG 1.1//EN"
 "http://www.w3.org/Graphics/SVG/1.1/DTD/svg11.dtd">
<!-- Generated by graphviz version 2.38.0 (20140413.2041)
 -->
<!-- Title: tank::CollisionGrid Pages: 1 -->
<svg width="105pt" height="148pt"
 viewBox="0.00 0.00 105.14 148.00" xmlns="http://www.w3.org/2000/svg" xmlns:xlink="http://www.w3.org/1999/xlink">
<g id="graph0" class="graph" transform="scale(1 1) rotate(0) translate(4 144)">
<title>tank::CollisionGrid</title>
<polygon fill="white" stroke="none" points="-4,4 -4,-144 101.143,-144 101.143,4 -4,4"/>
<!-- Node1 -->
<g id="node1" class="node"><title>Node1</title>
<polygon fill="#bfbfbf" stroke="black" points="0,-0.5 0,-18.5 97.1426,-18.5 97.1426,-0.5 0,-0.5"/>
<text text-anchor="middle" x="48.5713" y="-6.5" font-family="Helvetica,sans-Serif" font-size="10.00">tank::CollisionGrid</text>
</g>
<!-- Node2 -->
<g id="node2" class="node"><title>Node2</title>
<g id="a_node2"><a xlink:href="classtank_1_1_grid.html" target="_top" xlink:title="tank::Grid\&lt; bool \&gt;">
<polygon fill="white" stroke="black" points="0.825195,-56.5 0.825195,-74.5 96.3174,-74.5 96.3174,-56.5 0.825195,-56.5"/>
<text text-anchor="middle" x="48.5713" y="-62.5" font-family="Helvetica,sans-Serif" font-size="10.00">tank::Grid&lt; bool &gt;</text>
</a>
</g>
</g>
<!-- Node2&#45;&gt;Node1 -->
<g id="edge1" class="edge"><title>Node2&#45;&gt;Node1</title>
<path fill="none" stroke="midnightblue" d="M48.5713,-45.8288C48.5713,-36.5774 48.5713,-25.8798 48.5713,-18.7014"/>
<polygon fill="midnightblue" stroke="midnightblue" points="45.0714,-46.0625 48.5713,-56.0625 52.0714,-46.0625 45.0714,-46.0625"/>
</g>
<!-- Node3 -->
<g id="node3" class="node"><title>Node3</title>
<g id="a_node3"><a xlink:href="classtank_1_1_grid.html" target="_top" xlink:title="tank::Grid\&lt; T \&gt;">
<polygon fill="white" stroke="black" points="7.3999,-121.5 7.3999,-139.5 89.7427,-139.5 89.7427,-121.5 7.3999,-121.5"/>
<text text-anchor="middle" x="48.5713" y="-127.5" font-family="Helvetica,sans-Serif" font-size="10.00">tank::Grid&lt; T &gt;</text>
</a>
</g>
</g>
<!-- Node3&#45;&gt;Node2 -->
<g id="edge2" class="edge"><title>Node3&#45;&gt;Node2</title>
<path fill="none" stroke="orange" stroke-dasharray="5,2" d="M48.5713,-110.907C48.5713,-98.8146 48.5713,-83.6529 48.5713,-74.539"/>
<polygon fill="orange" stroke="orange" points="45.0714,-111.264 48.5713,-121.264 52.0714,-111.264 45.0714,-111.264"/>
<text text-anchor="middle" x="68.0317" y="-95" font-family="Helvetica,sans-Serif" font-size="10.00"> &lt; bool &gt;</text>
</g>
</g>
</svg>
