<?xml version="1.0" encoding="UTF-8" standalone="no"?>
<!DOCTYPE svg PUBLIC "-//W3C//DTD SVG 1.1//EN"
 "http://www.w3.org/Graphics/SVG/1.1/DTD/svg11.dtd">
<!-- Generated by graphviz version 2.38.0 (20140413.2041)
 -->
<!-- Title: tank::TweenFunc&lt; T &gt; Pages: 1 -->
<svg width="256pt" height="82pt"
 viewBox="0.00 0.00 256.15 82.00" xmlns="http://www.w3.org/2000/svg" xmlns:xlink="http://www.w3.org/1999/xlink">
<g id="graph0" class="graph" transform="scale(1 1) rotate(0) translate(4 78)">
<title>tank::TweenFunc&lt; T &gt;</title>
<polygon fill="white" stroke="none" points="-4,4 -4,-78 252.148,-78 252.148,4 -4,4"/>
<!-- Node1 -->
<g id="node1" class="node"><title>Node1</title>
<polygon fill="#bfbfbf" stroke="black" points="65.165,-55.5 65.165,-73.5 180.315,-73.5 180.315,-55.5 65.165,-55.5"/>
<text text-anchor="middle" x="122.74" y="-61.5" font-family="Helvetica,sans-Serif" font-size="10.00">tank::TweenFunc&lt; T &gt;</text>
</g>
<!-- Node2 -->
<g id="node2" class="node"><title>Node2</title>
<g id="a_node2"><a xlink:href="classtank_1_1_linear_func.html" target="_top" xlink:title="tank::LinearFunc\&lt; T \&gt;">
<polygon fill="white" stroke="black" points="0,-0.5 0,-18.5 113.48,-18.5 113.48,-0.5 0,-0.5"/>
<text text-anchor="middle" x="56.7402" y="-6.5" font-family="Helvetica,sans-Serif" font-size="10.00">tank::LinearFunc&lt; T &gt;</text>
</a>
</g>
</g>
<!-- Node1&#45;&gt;Node2 -->
<g id="edge1" class="edge"><title>Node1&#45;&gt;Node2</title>
<path fill="none" stroke="midnightblue" d="M104.591,-48.9259C92.4328,-39.1622 76.8756,-26.6693 66.8585,-18.6253"/>
<polygon fill="midnightblue" stroke="midnightblue" points="102.728,-51.9181 112.716,-55.4504 107.111,-46.46 102.728,-51.9181"/>
</g>
<!-- Node3 -->
<g id="node3" class="node"><title>Node3</title>
<g id="a_node3"><a xlink:href="classtank_1_1_steady_func.html" target="_top" xlink:title="tank::SteadyFunc\&lt; T \&gt;">
<polygon fill="white" stroke="black" points="131.333,-0.5 131.333,-18.5 248.148,-18.5 248.148,-0.5 131.333,-0.5"/>
<text text-anchor="middle" x="189.74" y="-6.5" font-family="Helvetica,sans-Serif" font-size="10.00">tank::SteadyFunc&lt; T &gt;</text>
</a>
</g>
</g>
<!-- Node1&#45;&gt;Node3 -->
<g id="edge2" class="edge"><title>Node1&#45;&gt;Node3</title>
<path fill="none" stroke="midnightblue" d="M140.806,-49.2095C153.2,-39.4052 169.201,-26.7474 179.469,-18.6253"/>
<polygon fill="midnightblue" stroke="midnightblue" points="138.588,-46.5014 132.916,-55.4504 142.93,-51.9914 138.588,-46.5014"/>
</g>
</g>
</svg>
