<?xml version="1.0" encoding="UTF-8" standalone="no"?>
<!DOCTYPE svg PUBLIC "-//W3C//DTD SVG 1.1//EN"
 "http://www.w3.org/Graphics/SVG/1.1/DTD/svg11.dtd">
<!-- Generated by graphviz version 2.38.0 (20140413.2041)
 -->
<!-- Title: tank::Shape Pages: 1 -->
<svg width="357pt" height="192pt"
 viewBox="0.00 0.00 356.67 192.00" xmlns="http://www.w3.org/2000/svg" xmlns:xlink="http://www.w3.org/1999/xlink">
<g id="graph0" class="graph" transform="scale(1 1) rotate(0) translate(4 188)">
<title>tank::Shape</title>
<polygon fill="white" stroke="none" points="-4,4 -4,-188 352.667,-188 352.667,4 -4,4"/>
<!-- Node1 -->
<g id="node1" class="node"><title>Node1</title>
<polygon fill="#bfbfbf" stroke="black" points="129.778,-55.5 129.778,-73.5 199.152,-73.5 199.152,-55.5 129.778,-55.5"/>
<text text-anchor="middle" x="164.465" y="-61.5" font-family="Helvetica,sans-Serif" font-size="10.00">tank::Shape</text>
</g>
<!-- Node4 -->
<g id="node4" class="node"><title>Node4</title>
<g id="a_node4"><a xlink:href="classtank_1_1_circle_shape.html" target="_top" xlink:title="tank::CircleShape">
<polygon fill="white" stroke="black" points="0,-0.5 0,-18.5 94.9307,-18.5 94.9307,-0.5 0,-0.5"/>
<text text-anchor="middle" x="47.4653" y="-6.5" font-family="Helvetica,sans-Serif" font-size="10.00">tank::CircleShape</text>
</a>
</g>
</g>
<!-- Node1&#45;&gt;Node4 -->
<g id="edge3" class="edge"><title>Node1&#45;&gt;Node4</title>
<path fill="none" stroke="midnightblue" d="M137.497,-51.2834C115.357,-41.2545 84.6254,-27.3332 65.4023,-18.6253"/>
<polygon fill="midnightblue" stroke="midnightblue" points="136.142,-54.5122 146.696,-55.4504 139.031,-48.1359 136.142,-54.5122"/>
</g>
<!-- Node5 -->
<g id="node5" class="node"><title>Node5</title>
<g id="a_node5"><a xlink:href="classtank_1_1_convex_shape.html" target="_top" xlink:title="tank::ConvexShape">
<polygon fill="white" stroke="black" points="112.825,-0.5 112.825,-18.5 216.105,-18.5 216.105,-0.5 112.825,-0.5"/>
<text text-anchor="middle" x="164.465" y="-6.5" font-family="Helvetica,sans-Serif" font-size="10.00">tank::ConvexShape</text>
</a>
</g>
</g>
<!-- Node1&#45;&gt;Node5 -->
<g id="edge4" class="edge"><title>Node1&#45;&gt;Node5</title>
<path fill="none" stroke="midnightblue" d="M164.465,-45.1746C164.465,-36.0945 164.465,-25.5949 164.465,-18.5496"/>
<polygon fill="midnightblue" stroke="midnightblue" points="160.965,-45.2187 164.465,-55.2188 167.965,-45.2188 160.965,-45.2187"/>
</g>
<!-- Node6 -->
<g id="node6" class="node"><title>Node6</title>
<g id="a_node6"><a xlink:href="classtank_1_1_rectangle_shape.html" target="_top" xlink:title="tank::RectangleShape">
<polygon fill="white" stroke="black" points="234.264,-0.5 234.264,-18.5 348.667,-18.5 348.667,-0.5 234.264,-0.5"/>
<text text-anchor="middle" x="291.465" y="-6.5" font-family="Helvetica,sans-Serif" font-size="10.00">tank::RectangleShape</text>
</a>
</g>
</g>
<!-- Node1&#45;&gt;Node6 -->
<g id="edge5" class="edge"><title>Node1&#45;&gt;Node6</title>
<path fill="none" stroke="midnightblue" d="M193.095,-51.5523C217.171,-41.5046 250.942,-27.4113 271.995,-18.6253"/>
<polygon fill="midnightblue" stroke="midnightblue" points="191.635,-48.369 183.754,-55.4504 194.331,-54.8291 191.635,-48.369"/>
</g>
<!-- Node2 -->
<g id="node2" class="node"><title>Node2</title>
<g id="a_node2"><a xlink:href="classtank_1_1_graphic.html" target="_top" xlink:title="tank::Graphic">
<polygon fill="white" stroke="black" points="126.729,-110.5 126.729,-128.5 202.202,-128.5 202.202,-110.5 126.729,-110.5"/>
<text text-anchor="middle" x="164.465" y="-116.5" font-family="Helvetica,sans-Serif" font-size="10.00">tank::Graphic</text>
</a>
</g>
</g>
<!-- Node2&#45;&gt;Node1 -->
<g id="edge1" class="edge"><title>Node2&#45;&gt;Node1</title>
<path fill="none" stroke="midnightblue" d="M164.465,-100.175C164.465,-91.0945 164.465,-80.5949 164.465,-73.5496"/>
<polygon fill="midnightblue" stroke="midnightblue" points="160.965,-100.219 164.465,-110.219 167.965,-100.219 160.965,-100.219"/>
</g>
<!-- Node3 -->
<g id="node3" class="node"><title>Node3</title>
<g id="a_node3"><a xlink:href="classtank_1_1_transformable.html" target="_top" xlink:title="tank::Transformable">
<polygon fill="white" stroke="black" points="112.186,-165.5 112.186,-183.5 216.745,-183.5 216.745,-165.5 112.186,-165.5"/>
<text text-anchor="middle" x="164.465" y="-171.5" font-family="Helvetica,sans-Serif" font-size="10.00">tank::Transformable</text>
</a>
</g>
</g>
<!-- Node3&#45;&gt;Node2 -->
<g id="edge2" class="edge"><title>Node3&#45;&gt;Node2</title>
<path fill="none" stroke="midnightblue" d="M164.465,-155.175C164.465,-146.094 164.465,-135.595 164.465,-128.55"/>
<polygon fill="midnightblue" stroke="midnightblue" points="160.965,-155.219 164.465,-165.219 167.965,-155.219 160.965,-155.219"/>
</g>
</g>
</svg>
