<?xml version="1.0" encoding="UTF-8" standalone="no"?>
<!DOCTYPE svg PUBLIC "-//W3C//DTD SVG 1.1//EN"
 "http://www.w3.org/Graphics/SVG/1.1/DTD/svg11.dtd">
<!-- Generated by graphviz version 2.38.0 (20140413.2041)
 -->
<!-- Title: /Users/david/Documents/Projects/tank/Tank Pages: 1 -->
<svg width="534pt" height="76pt"
 viewBox="0.00 0.00 534.00 76.00" xmlns="http://www.w3.org/2000/svg" xmlns:xlink="http://www.w3.org/1999/xlink">
<g id="graph0" class="graph" transform="scale(1 1) rotate(0) translate(4 72)">
<title>/Users/david/Documents/Projects/tank/Tank</title>
<polygon fill="white" stroke="none" points="-4,4 -4,-72 530,-72 530,4 -4,4"/>
<g id="clust1" class="cluster"><title>clusterdir_8f0a7c1e577c2eee76d3184daf869500</title>
<g id="a_clust1"><a xlink:href="dir_8f0a7c1e577c2eee76d3184daf869500.html" target="_top">
<polygon fill="#eeeeff" stroke="black" points="8,-8 8,-60 518,-60 518,-8 8,-8"/>
</a>
</g>
</g>
<!-- dir_8f0a7c1e577c2eee76d3184daf869500 -->
<g id="node1" class="node"><title>dir_8f0a7c1e577c2eee76d3184daf869500</title>
<text text-anchor="middle" x="483" y="-31" font-family="Helvetica,sans-Serif" font-size="10.00">Tank</text>
</g>
<!-- dir_c161f5d6539f6de024b6a9c5af6f025e -->
<g id="node2" class="node"><title>dir_c161f5d6539f6de024b6a9c5af6f025e</title>
<g id="a_node2"><a xlink:href="dir_c161f5d6539f6de024b6a9c5af6f025e.html" target="_top" xlink:title="Audio">
<polygon fill="white" stroke="black" points="438,-52 384,-52 384,-16 438,-16 438,-52"/>
<text text-anchor="middle" x="411" y="-31" font-family="Helvetica,sans-Serif" font-size="10.00">Audio</text>
</a>
</g>
</g>
<!-- dir_d1824ce9210a00eaf55e68523411f288 -->
<g id="node3" class="node"><title>dir_d1824ce9210a00eaf55e68523411f288</title>
<g id="a_node3"><a xlink:href="dir_d1824ce9210a00eaf55e68523411f288.html" target="_top" xlink:title="Geometry">
<polygon fill="white" stroke="black" points="365.901,-52 306.099,-52 306.099,-16 365.901,-16 365.901,-52"/>
<text text-anchor="middle" x="336" y="-31" font-family="Helvetica,sans-Serif" font-size="10.00">Geometry</text>
</a>
</g>
</g>
<!-- dir_106a9f6229a4e965cd81e34facc046e7 -->
<g id="node4" class="node"><title>dir_106a9f6229a4e965cd81e34facc046e7</title>
<g id="a_node4"><a xlink:href="dir_106a9f6229a4e965cd81e34facc046e7.html" target="_top" xlink:title="Graphics">
<polygon fill="white" stroke="black" points="288.015,-52 231.985,-52 231.985,-16 288.015,-16 288.015,-52"/>
<text text-anchor="middle" x="260" y="-31" font-family="Helvetica,sans-Serif" font-size="10.00">Graphics</text>
</a>
</g>
</g>
<!-- dir_438952316c60c2606308af4d8c603423 -->
<g id="node5" class="node"><title>dir_438952316c60c2606308af4d8c603423</title>
<g id="a_node5"><a xlink:href="dir_438952316c60c2606308af4d8c603423.html" target="_top" xlink:title="System">
<polygon fill="white" stroke="black" points="214,-52 160,-52 160,-16 214,-16 214,-52"/>
<text text-anchor="middle" x="187" y="-31" font-family="Helvetica,sans-Serif" font-size="10.00">System</text>
</a>
</g>
</g>
<!-- dir_6306cf3e07850789fa67299664098d31 -->
<g id="node6" class="node"><title>dir_6306cf3e07850789fa67299664098d31</title>
<g id="a_node6"><a xlink:href="dir_6306cf3e07850789fa67299664098d31.html" target="_top" xlink:title="Tweens">
<polygon fill="white" stroke="black" points="142,-52 88,-52 88,-16 142,-16 142,-52"/>
<text text-anchor="middle" x="115" y="-31" font-family="Helvetica,sans-Serif" font-size="10.00">Tweens</text>
</a>
</g>
</g>
<!-- dir_c16eedbd6c67372c52a1866e68ecba17 -->
<g id="node7" class="node"><title>dir_c16eedbd6c67372c52a1866e68ecba17</title>
<g id="a_node7"><a xlink:href="dir_c16eedbd6c67372c52a1866e68ecba17.html" target="_top" xlink:title="Utility">
<polygon fill="white" stroke="black" points="70,-52 16,-52 16,-16 70,-16 70,-52"/>
<text text-anchor="middle" x="43" y="-31" font-family="Helvetica,sans-Serif" font-size="10.00">Utility</text>
</a>
</g>
</g>
</g>
</svg>
