<?xml version="1.0" encoding="UTF-8" standalone="no"?>
<!DOCTYPE svg PUBLIC "-//W3C//DTD SVG 1.1//EN"
 "http://www.w3.org/Graphics/SVG/1.1/DTD/svg11.dtd">
<!-- Generated by graphviz version 2.38.0 (20140413.2041)
 -->
<!-- Title: Graphical Class Hierarchy Pages: 1 -->
<svg width="501pt" height="193pt"
 viewBox="0.00 0.00 500.91 193.00" xmlns="http://www.w3.org/2000/svg" xmlns:xlink="http://www.w3.org/1999/xlink">
<g id="graph0" class="graph" transform="scale(1 1) rotate(0) translate(4 189)">
<title>Graphical Class Hierarchy</title>
<polygon fill="white" stroke="none" points="-4,4 -4,-189 496.908,-189 496.908,4 -4,4"/>
<!-- Node1 -->
<g id="node1" class="node"><title>Node1</title>
<g id="a_node1"><a xlink:href="classtank_1_1_transformable.html" target="_top" xlink:title="tank::Transformable">
<polygon fill="white" stroke="black" points="0,-129.5 0,-147.5 104.56,-147.5 104.56,-129.5 0,-129.5"/>
<text text-anchor="middle" x="52.2798" y="-135.5" font-family="Helvetica,sans-Serif" font-size="10.00">tank::Transformable</text>
</a>
</g>
</g>
<!-- Node2 -->
<g id="node2" class="node"><title>Node2</title>
<g id="a_node2"><a xlink:href="classtank_1_1_camera.html" target="_top" xlink:title="tank::Camera">
<polygon fill="white" stroke="black" points="140.56,-166.5 140.56,-184.5 216.584,-184.5 216.584,-166.5 140.56,-166.5"/>
<text text-anchor="middle" x="178.572" y="-172.5" font-family="Helvetica,sans-Serif" font-size="10.00">tank::Camera</text>
</a>
</g>
</g>
<!-- Node1&#45;&gt;Node2 -->
<g id="edge1" class="edge"><title>Node1&#45;&gt;Node2</title>
<path fill="none" stroke="midnightblue" d="M93.5649,-150.492C110.941,-155.665 130.93,-161.615 147.05,-166.414"/>
<polygon fill="midnightblue" stroke="midnightblue" points="94.268,-147.05 83.685,-147.551 92.2708,-153.759 94.268,-147.05"/>
</g>
<!-- Node3 -->
<g id="node3" class="node"><title>Node3</title>
<g id="a_node3"><a xlink:href="classtank_1_1_entity.html" target="_top" xlink:title="Base class for all game entities. ">
<polygon fill="white" stroke="black" points="145.838,-129.5 145.838,-147.5 211.306,-147.5 211.306,-129.5 145.838,-129.5"/>
<text text-anchor="middle" x="178.572" y="-135.5" font-family="Helvetica,sans-Serif" font-size="10.00">tank::Entity</text>
</a>
</g>
</g>
<!-- Node1&#45;&gt;Node3 -->
<g id="edge2" class="edge"><title>Node1&#45;&gt;Node3</title>
<path fill="none" stroke="midnightblue" d="M115.076,-138.5C125.726,-138.5 136.39,-138.5 145.816,-138.5"/>
<polygon fill="midnightblue" stroke="midnightblue" points="114.911,-135 104.911,-138.5 114.911,-142 114.911,-135"/>
</g>
<!-- Node4 -->
<g id="node4" class="node"><title>Node4</title>
<g id="a_node4"><a xlink:href="classtank_1_1_graphic.html" target="_top" xlink:title="tank::Graphic">
<polygon fill="white" stroke="black" points="140.835,-92.5 140.835,-110.5 216.308,-110.5 216.308,-92.5 140.835,-92.5"/>
<text text-anchor="middle" x="178.572" y="-98.5" font-family="Helvetica,sans-Serif" font-size="10.00">tank::Graphic</text>
</a>
</g>
</g>
<!-- Node1&#45;&gt;Node4 -->
<g id="edge3" class="edge"><title>Node1&#45;&gt;Node4</title>
<path fill="none" stroke="midnightblue" d="M93.5649,-126.508C110.941,-121.335 130.93,-115.385 147.05,-110.586"/>
<polygon fill="midnightblue" stroke="midnightblue" points="92.2708,-123.241 83.685,-129.449 94.268,-129.95 92.2708,-123.241"/>
</g>
<!-- Node5 -->
<g id="node5" class="node"><title>Node5</title>
<g id="a_node5"><a xlink:href="classtank_1_1_bitmap_text.html" target="_top" xlink:title="tank::BitmapText">
<polygon fill="white" stroke="black" points="252.584,-166.5 252.584,-184.5 342.505,-184.5 342.505,-166.5 252.584,-166.5"/>
<text text-anchor="middle" x="297.544" y="-172.5" font-family="Helvetica,sans-Serif" font-size="10.00">tank::BitmapText</text>
</a>
</g>
</g>
<!-- Node4&#45;&gt;Node5 -->
<g id="edge4" class="edge"><title>Node4&#45;&gt;Node5</title>
<path fill="none" stroke="midnightblue" d="M209.134,-115.548C211.721,-117.112 214.243,-118.769 216.584,-120.5 235.033,-134.141 233.568,-144.661 252.584,-157.5 257.642,-160.915 263.449,-163.86 269.149,-166.321"/>
<polygon fill="midnightblue" stroke="midnightblue" points="210.694,-112.412 200.252,-110.622 207.299,-118.533 210.694,-112.412"/>
</g>
<!-- Node6 -->
<g id="node6" class="node"><title>Node6</title>
<g id="a_node6"><a xlink:href="classtank_1_1_frame_list.html" target="_top" xlink:title="Represents an image with multiple frames and stores animations for that image. ">
<polygon fill="white" stroke="black" points="255.089,-129.5 255.089,-147.5 340,-147.5 340,-129.5 255.089,-129.5"/>
<text text-anchor="middle" x="297.544" y="-135.5" font-family="Helvetica,sans-Serif" font-size="10.00">tank::FrameList</text>
</a>
</g>
</g>
<!-- Node4&#45;&gt;Node6 -->
<g id="edge5" class="edge"><title>Node4&#45;&gt;Node6</title>
<path fill="none" stroke="midnightblue" d="M217.944,-113.638C234.189,-118.776 252.791,-124.66 267.82,-129.414"/>
<polygon fill="midnightblue" stroke="midnightblue" points="218.776,-110.23 208.187,-110.551 216.665,-116.904 218.776,-110.23"/>
</g>
<!-- Node7 -->
<g id="node7" class="node"><title>Node7</title>
<g id="a_node7"><a xlink:href="classtank_1_1_image.html" target="_top" xlink:title="tank::Image">
<polygon fill="white" stroke="black" points="263.419,-92.5 263.419,-110.5 331.67,-110.5 331.67,-92.5 263.419,-92.5"/>
<text text-anchor="middle" x="297.544" y="-98.5" font-family="Helvetica,sans-Serif" font-size="10.00">tank::Image</text>
</a>
</g>
</g>
<!-- Node4&#45;&gt;Node7 -->
<g id="edge6" class="edge"><title>Node4&#45;&gt;Node7</title>
<path fill="none" stroke="midnightblue" d="M226.686,-101.5C238.967,-101.5 251.945,-101.5 263.338,-101.5"/>
<polygon fill="midnightblue" stroke="midnightblue" points="226.583,-98.0001 216.583,-101.5 226.583,-105 226.583,-98.0001"/>
</g>
<!-- Node9 -->
<g id="node9" class="node"><title>Node9</title>
<g id="a_node9"><a xlink:href="classtank_1_1_shape.html" target="_top" xlink:title="tank::Shape">
<polygon fill="white" stroke="black" points="262.857,-55.5 262.857,-73.5 332.231,-73.5 332.231,-55.5 262.857,-55.5"/>
<text text-anchor="middle" x="297.544" y="-61.5" font-family="Helvetica,sans-Serif" font-size="10.00">tank::Shape</text>
</a>
</g>
</g>
<!-- Node4&#45;&gt;Node9 -->
<g id="edge8" class="edge"><title>Node4&#45;&gt;Node9</title>
<path fill="none" stroke="midnightblue" d="M217.944,-89.3625C234.189,-84.2239 252.791,-78.3397 267.82,-73.586"/>
<polygon fill="midnightblue" stroke="midnightblue" points="216.665,-86.0958 208.187,-92.4488 218.776,-92.7699 216.665,-86.0958"/>
</g>
<!-- Node13 -->
<g id="node13" class="node"><title>Node13</title>
<g id="a_node13"><a xlink:href="classtank_1_1_text.html" target="_top" xlink:title="tank::Text">
<polygon fill="white" stroke="black" points="268.146,-18.5 268.146,-36.5 326.943,-36.5 326.943,-18.5 268.146,-18.5"/>
<text text-anchor="middle" x="297.544" y="-24.5" font-family="Helvetica,sans-Serif" font-size="10.00">tank::Text</text>
</a>
</g>
</g>
<!-- Node4&#45;&gt;Node13 -->
<g id="edge12" class="edge"><title>Node4&#45;&gt;Node13</title>
<path fill="none" stroke="midnightblue" d="M197.897,-85.7497C212.171,-73.9762 232.817,-57.9967 252.584,-46.5 258.909,-42.8215 266.08,-39.4269 272.768,-36.5556"/>
<polygon fill="midnightblue" stroke="midnightblue" points="195.311,-83.351 189.899,-92.4592 199.81,-88.714 195.311,-83.351"/>
</g>
<!-- Node8 -->
<g id="node8" class="node"><title>Node8</title>
<g id="a_node8"><a xlink:href="classtank_1_1_tilemap.html" target="_top" xlink:title="This is a tilemap. ">
<polygon fill="white" stroke="black" points="397.877,-111.5 397.877,-129.5 473.536,-129.5 473.536,-111.5 397.877,-111.5"/>
<text text-anchor="middle" x="435.707" y="-117.5" font-family="Helvetica,sans-Serif" font-size="10.00">tank::Tilemap</text>
</a>
</g>
</g>
<!-- Node7&#45;&gt;Node8 -->
<g id="edge7" class="edge"><title>Node7&#45;&gt;Node8</title>
<path fill="none" stroke="midnightblue" d="M341.759,-107.53C359.653,-110.027 380.204,-112.895 397.424,-115.298"/>
<polygon fill="midnightblue" stroke="midnightblue" points="342.241,-104.064 331.853,-106.148 341.274,-110.996 342.241,-104.064"/>
</g>
<!-- Node10 -->
<g id="node10" class="node"><title>Node10</title>
<g id="a_node10"><a xlink:href="classtank_1_1_circle_shape.html" target="_top" xlink:title="tank::CircleShape">
<polygon fill="white" stroke="black" points="388.241,-74.5 388.241,-92.5 483.172,-92.5 483.172,-74.5 388.241,-74.5"/>
<text text-anchor="middle" x="435.707" y="-80.5" font-family="Helvetica,sans-Serif" font-size="10.00">tank::CircleShape</text>
</a>
</g>
</g>
<!-- Node9&#45;&gt;Node10 -->
<g id="edge9" class="edge"><title>Node9&#45;&gt;Node10</title>
<path fill="none" stroke="midnightblue" d="M342.765,-70.6705C357.251,-72.6918 373.387,-74.9435 388.047,-76.9892"/>
<polygon fill="midnightblue" stroke="midnightblue" points="342.94,-67.1612 332.553,-69.2455 341.973,-74.094 342.94,-67.1612"/>
</g>
<!-- Node11 -->
<g id="node11" class="node"><title>Node11</title>
<g id="a_node11"><a xlink:href="classtank_1_1_convex_shape.html" target="_top" xlink:title="tank::ConvexShape">
<polygon fill="white" stroke="black" points="384.066,-37.5 384.066,-55.5 487.347,-55.5 487.347,-37.5 384.066,-37.5"/>
<text text-anchor="middle" x="435.707" y="-43.5" font-family="Helvetica,sans-Serif" font-size="10.00">tank::ConvexShape</text>
</a>
</g>
</g>
<!-- Node9&#45;&gt;Node11 -->
<g id="edge10" class="edge"><title>Node9&#45;&gt;Node11</title>
<path fill="none" stroke="midnightblue" d="M342.753,-58.6559C355.89,-56.9192 370.385,-55.0031 383.906,-53.2156"/>
<polygon fill="midnightblue" stroke="midnightblue" points="342.008,-55.2238 332.553,-60.0043 342.925,-62.1634 342.008,-55.2238"/>
</g>
<!-- Node12 -->
<g id="node12" class="node"><title>Node12</title>
<g id="a_node12"><a xlink:href="classtank_1_1_rectangle_shape.html" target="_top" xlink:title="tank::RectangleShape">
<polygon fill="white" stroke="black" points="378.505,-0.5 378.505,-18.5 492.908,-18.5 492.908,-0.5 378.505,-0.5"/>
<text text-anchor="middle" x="435.707" y="-6.5" font-family="Helvetica,sans-Serif" font-size="10.00">tank::RectangleShape</text>
</a>
</g>
</g>
<!-- Node9&#45;&gt;Node12 -->
<g id="edge11" class="edge"><title>Node9&#45;&gt;Node12</title>
<path fill="none" stroke="midnightblue" d="M331.02,-51.5243C334.909,-49.8759 338.809,-48.1779 342.505,-46.5 358.794,-39.1056 361.993,-35.3808 378.505,-28.5 387.157,-24.8948 396.759,-21.4519 405.543,-18.5114"/>
<polygon fill="midnightblue" stroke="midnightblue" points="329.392,-48.411 321.5,-55.4801 332.077,-54.8752 329.392,-48.411"/>
</g>
</g>
</svg>
