<?xml version="1.0" encoding="UTF-8" standalone="no"?>
<!DOCTYPE svg PUBLIC "-//W3C//DTD SVG 1.1//EN"
 "http://www.w3.org/Graphics/SVG/1.1/DTD/svg11.dtd">
<!-- Generated by graphviz version 2.38.0 (20140413.2041)
 -->
<!-- Title: Graphical Class Hierarchy Pages: 1 -->
<svg width="276pt" height="64pt"
 viewBox="0.00 0.00 275.97 64.00" xmlns="http://www.w3.org/2000/svg" xmlns:xlink="http://www.w3.org/1999/xlink">
<g id="graph0" class="graph" transform="scale(1 1) rotate(0) translate(4 60)">
<title>Graphical Class Hierarchy</title>
<polygon fill="white" stroke="none" points="-4,4 -4,-60 271.966,-60 271.966,4 -4,4"/>
<!-- Node1 -->
<g id="node1" class="node"><title>Node1</title>
<g id="a_node1"><a xlink:href="classtank_1_1_tween_func.html" target="_top" xlink:title="This is a template class for the tween functions. ">
<polygon fill="white" stroke="black" points="0,-18.5 0,-36.5 115.15,-36.5 115.15,-18.5 0,-18.5"/>
<text text-anchor="middle" x="57.5752" y="-24.5" font-family="Helvetica,sans-Serif" font-size="10.00">tank::TweenFunc&lt; T &gt;</text>
</a>
</g>
</g>
<!-- Node2 -->
<g id="node2" class="node"><title>Node2</title>
<g id="a_node2"><a xlink:href="classtank_1_1_linear_func.html" target="_top" xlink:title="tank::LinearFunc\&lt; T \&gt;">
<polygon fill="white" stroke="black" points="152.818,-37.5 152.818,-55.5 266.298,-55.5 266.298,-37.5 152.818,-37.5"/>
<text text-anchor="middle" x="209.558" y="-43.5" font-family="Helvetica,sans-Serif" font-size="10.00">tank::LinearFunc&lt; T &gt;</text>
</a>
</g>
</g>
<!-- Node1&#45;&gt;Node2 -->
<g id="edge1" class="edge"><title>Node1&#45;&gt;Node2</title>
<path fill="none" stroke="midnightblue" d="M125.475,-35.975C134.595,-37.1302 143.876,-38.3059 152.77,-39.4327"/>
<polygon fill="midnightblue" stroke="midnightblue" points="125.638,-32.4677 115.277,-34.6831 124.758,-39.4122 125.638,-32.4677"/>
</g>
<!-- Node3 -->
<g id="node3" class="node"><title>Node3</title>
<g id="a_node3"><a xlink:href="classtank_1_1_steady_func.html" target="_top" xlink:title="tank::SteadyFunc\&lt; T \&gt;">
<polygon fill="white" stroke="black" points="151.15,-0.5 151.15,-18.5 267.966,-18.5 267.966,-0.5 151.15,-0.5"/>
<text text-anchor="middle" x="209.558" y="-6.5" font-family="Helvetica,sans-Serif" font-size="10.00">tank::SteadyFunc&lt; T &gt;</text>
</a>
</g>
</g>
<!-- Node1&#45;&gt;Node3 -->
<g id="edge2" class="edge"><title>Node1&#45;&gt;Node3</title>
<path fill="none" stroke="midnightblue" d="M125.475,-19.4711C133.916,-18.458 142.496,-17.4284 150.779,-16.4343"/>
<polygon fill="midnightblue" stroke="midnightblue" points="124.789,-16.0282 115.277,-20.695 125.623,-22.9784 124.789,-16.0282"/>
</g>
</g>
</svg>
