<?xml version="1.0" encoding="UTF-8" standalone="no"?>
<!DOCTYPE svg PUBLIC "-//W3C//DTD SVG 1.1//EN"
 "http://www.w3.org/Graphics/SVG/1.1/DTD/svg11.dtd">
<!-- Generated by graphviz version 2.38.0 (20140413.2041)
 -->
<!-- Title: tank::Vector&lt; T &gt; Pages: 1 -->
<svg width="248pt" height="102pt"
 viewBox="0.00 0.00 248.49 102.00" xmlns="http://www.w3.org/2000/svg" xmlns:xlink="http://www.w3.org/1999/xlink">
<g id="graph0" class="graph" transform="scale(1 1) rotate(0) translate(4 98)">
<title>tank::Vector&lt; T &gt;</title>
<polygon fill="white" stroke="none" points="-4,4 -4,-98 244.486,-98 244.486,4 -4,4"/>
<!-- Node1 -->
<g id="node1" class="node"><title>Node1</title>
<polygon fill="#bfbfbf" stroke="black" points="70.5723,-75.5 70.5723,-93.5 162.378,-93.5 162.378,-75.5 70.5723,-75.5"/>
<text text-anchor="middle" x="116.475" y="-81.5" font-family="Helvetica,sans-Serif" font-size="10.00">tank::Vector&lt; T &gt;</text>
</g>
<!-- Node2 -->
<g id="node2" class="node"><title>Node2</title>
<g id="a_node2"><a xlink:href="structtank_1_1_vector.html" target="_top" xlink:title="tank::Vector\&lt; float \&gt;">
<polygon fill="white" stroke="black" points="0,-5.5 0,-23.5 104.95,-23.5 104.95,-5.5 0,-5.5"/>
<text text-anchor="middle" x="52.4751" y="-11.5" font-family="Helvetica,sans-Serif" font-size="10.00">tank::Vector&lt; float &gt;</text>
</a>
</g>
</g>
<!-- Node1&#45;&gt;Node2 -->
<g id="edge1" class="edge"><title>Node1&#45;&gt;Node2</title>
<path fill="none" stroke="orange" stroke-dasharray="5,2" d="M101.965,-68.0835C88.9455,-54.2498 70.3494,-34.4915 60.0582,-23.557"/>
<polygon fill="orange" stroke="orange" points="99.4797,-70.5492 108.882,-75.4325 104.577,-65.7517 99.4797,-70.5492"/>
<text text-anchor="middle" x="109.933" y="-49" font-family="Helvetica,sans-Serif" font-size="10.00"> &lt; float &gt;</text>
</g>
<!-- Node3 -->
<g id="node3" class="node"><title>Node3</title>
<g id="a_node3"><a xlink:href="structtank_1_1_vector.html" target="_top" xlink:title="tank::Vector\&lt; unsigned\l int \&gt;">
<polygon fill="white" stroke="black" points="122.464,-0.5 122.464,-28.5 240.486,-28.5 240.486,-0.5 122.464,-0.5"/>
<text text-anchor="start" x="130.464" y="-16.5" font-family="Helvetica,sans-Serif" font-size="10.00">tank::Vector&lt; unsigned</text>
<text text-anchor="middle" x="181.475" y="-6.5" font-family="Helvetica,sans-Serif" font-size="10.00"> int &gt;</text>
</a>
</g>
</g>
<!-- Node1&#45;&gt;Node3 -->
<g id="edge2" class="edge"><title>Node1&#45;&gt;Node3</title>
<path fill="none" stroke="orange" stroke-dasharray="5,2" d="M131.271,-68.0209C142.618,-56.1501 158.109,-39.9444 168.87,-28.6867"/>
<polygon fill="orange" stroke="orange" points="128.566,-65.7853 124.187,-75.4325 133.627,-70.6222 128.566,-65.7853"/>
<text text-anchor="middle" x="188.448" y="-49" font-family="Helvetica,sans-Serif" font-size="10.00"> &lt; unsigned int &gt;</text>
</g>
</g>
</svg>
