<?xml version="1.0" encoding="UTF-8" standalone="no"?>
<!DOCTYPE svg PUBLIC "-//W3C//DTD SVG 1.1//EN"
 "http://www.w3.org/Graphics/SVG/1.1/DTD/svg11.dtd">
<!-- Generated by graphviz version 2.38.0 (20140413.2041)
 -->
<!-- Title: tank::Rect&lt; T &gt; Pages: 1 -->
<svg width="244pt" height="102pt"
 viewBox="0.00 0.00 244.26 102.00" xmlns="http://www.w3.org/2000/svg" xmlns:xlink="http://www.w3.org/1999/xlink">
<g id="graph0" class="graph" transform="scale(1 1) rotate(0) translate(4 98)">
<title>tank::Rect&lt; T &gt;</title>
<polygon fill="white" stroke="none" points="-4,4 -4,-98 240.257,-98 240.257,4 -4,4"/>
<!-- Node1 -->
<g id="node1" class="node"><title>Node1</title>
<polygon fill="#bfbfbf" stroke="black" points="75.1362,-75.5 75.1362,-93.5 159.149,-93.5 159.149,-75.5 75.1362,-75.5"/>
<text text-anchor="middle" x="117.143" y="-81.5" font-family="Helvetica,sans-Serif" font-size="10.00">tank::Rect&lt; T &gt;</text>
</g>
<!-- Node2 -->
<g id="node2" class="node"><title>Node2</title>
<g id="a_node2"><a xlink:href="structtank_1_1_rect.html" target="_top" xlink:title="tank::Rect\&lt; double \&gt;">
<polygon fill="white" stroke="black" points="0,-5.5 0,-23.5 108.285,-23.5 108.285,-5.5 0,-5.5"/>
<text text-anchor="middle" x="54.1426" y="-11.5" font-family="Helvetica,sans-Serif" font-size="10.00">tank::Rect&lt; double &gt;</text>
</a>
</g>
</g>
<!-- Node1&#45;&gt;Node2 -->
<g id="edge1" class="edge"><title>Node1&#45;&gt;Node2</title>
<path fill="none" stroke="orange" stroke-dasharray="5,2" d="M102.86,-68.0835C90.0431,-54.2498 71.7376,-34.4915 61.6072,-23.557"/>
<polygon fill="orange" stroke="orange" points="100.305,-70.4755 109.668,-75.4325 105.439,-65.7181 100.305,-70.4755"/>
<text text-anchor="middle" x="117.165" y="-49" font-family="Helvetica,sans-Serif" font-size="10.00"> &lt; double &gt;</text>
</g>
<!-- Node3 -->
<g id="node3" class="node"><title>Node3</title>
<g id="a_node3"><a xlink:href="structtank_1_1_rect.html" target="_top" xlink:title="tank::Rect\&lt; unsigned\l int \&gt;">
<polygon fill="white" stroke="black" points="126.028,-0.5 126.028,-28.5 236.257,-28.5 236.257,-0.5 126.028,-0.5"/>
<text text-anchor="start" x="134.028" y="-16.5" font-family="Helvetica,sans-Serif" font-size="10.00">tank::Rect&lt; unsigned</text>
<text text-anchor="middle" x="181.143" y="-6.5" font-family="Helvetica,sans-Serif" font-size="10.00"> int &gt;</text>
</a>
</g>
</g>
<!-- Node1&#45;&gt;Node3 -->
<g id="edge2" class="edge"><title>Node1&#45;&gt;Node3</title>
<path fill="none" stroke="orange" stroke-dasharray="5,2" d="M134.303,-68.497C138.285,-64.8321 142.439,-60.8541 146.143,-57 154.894,-47.8938 164.073,-36.9502 170.835,-28.5877"/>
<polygon fill="orange" stroke="orange" points="131.674,-66.1539 126.572,-75.4397 136.351,-71.362 131.674,-66.1539"/>
<text text-anchor="middle" x="192.115" y="-49" font-family="Helvetica,sans-Serif" font-size="10.00"> &lt; unsigned int &gt;</text>
</g>
</g>
</svg>
